<svg width="100" height="100" viewBox="0 0 100 100" xmlns="http://www.w3.org/2000/svg">
<path d="M77.0925 71.8004C81.9468 71.8004 85.896 67.8511 85.896 62.997C85.896 58.1427 81.9468 54.1935 77.0925 54.1935C72.2382 54.1935 68.2892 58.1427 68.2892 62.997C68.2892 67.8511 72.2382 71.8004 77.0925 71.8004ZM77.0925 57.123C80.3314 57.123 82.9663 59.758 82.9663 62.9969C82.9663 66.2355 80.3314 68.8705 77.0925 68.8705C73.8538 68.8705 71.2189 66.2355 71.2189 62.9969C71.2189 59.758 73.8538 57.123 77.0925 57.123Z"/>
<path d="M62.5256 27.1758C63.3348 27.1758 63.9904 26.5199 63.9904 25.7109C63.9904 24.902 63.3348 24.2461 62.5256 24.2461H37.4748C36.6656 24.2461 36.01 24.902 36.01 25.7109C36.01 26.5199 36.6656 27.1758 37.4748 27.1758H62.5256Z"/>
<path d="M57.7274 56.0951C57.7274 55.2859 57.0717 54.6302 56.2625 54.6302H43.7371C42.928 54.6302 42.2723 55.2859 42.2723 56.0951C42.2723 56.9043 42.928 57.5599 43.7371 57.5599H56.2625C57.0717 57.5599 57.7274 56.9043 57.7274 56.0951Z"/>
<path d="M23.4846 31.7762C23.4846 32.5851 24.1402 33.241 24.9494 33.241H75.0508C75.86 33.241 76.5156 32.5851 76.5156 31.7762C76.5156 30.9672 75.86 30.3113 75.0508 30.3113H24.9494C24.1404 30.3113 23.4846 30.9672 23.4846 31.7762Z"/>
<path d="M24.9494 39.306H75.0508C75.86 39.306 76.5156 38.6504 76.5156 37.8412C76.5156 37.0322 75.86 36.3764 75.0508 36.3764H24.9494C24.1402 36.3764 23.4846 37.0322 23.4846 37.8412C23.4846 38.6502 24.1404 39.306 24.9494 39.306Z"/>
<path d="M24.9494 45.3711H75.0508C75.86 45.3711 76.5156 44.7154 76.5156 43.9062C76.5156 43.0971 75.86 42.4414 75.0508 42.4414H24.9494C24.1402 42.4414 23.4846 43.0971 23.4846 43.9062C23.4846 44.7154 24.1404 45.3711 24.9494 45.3711Z"/>
<path d="M0 12.3513V65.4605C0 69.6648 3.42069 73.0855 7.62497 73.0855H66.4964C66.5968 73.1292 66.6978 73.1696 66.7988 73.2079V92.4901C66.7988 93.5352 67.3755 94.4823 68.3042 94.9619C68.7083 95.1707 69.1464 95.2738 69.5823 95.2738C70.148 95.2738 70.7099 95.1004 71.1911 94.7588L74.2536 92.5854H74.2538L77.0925 90.5709L82.9938 94.7588C83.8462 95.3641 84.9528 95.441 85.8809 94.9619C86.8094 94.4823 87.3862 93.535 87.3862 92.4901V73.2081C87.4874 73.1698 87.5883 73.1292 87.6889 73.0855H92.375C96.5793 73.0855 100 69.6648 100 65.4605V42.3239C100 41.5147 99.3443 40.859 98.5352 40.859C97.726 40.859 97.0703 41.5147 97.0703 42.3239V65.4605C97.0703 68.0495 94.9641 70.1558 92.375 70.1558H89.9375C90.0844 69.0388 89.8621 67.8062 90.0561 67.2089C90.3389 66.3371 92.1787 64.9898 92.1787 62.997C92.1787 61.6892 91.4002 60.6845 90.7748 59.8775C90.145 59.0646 90.0616 58.8916 90.0119 58.5883C90.408 58.5043 90.8125 58.4605 91.2229 58.4605C92.9354 58.4728 94.1406 57.1373 94.1406 55.6125V22.1993C94.1406 20.6011 92.8367 19.3339 91.2762 19.3511C87.9332 19.363 85.3524 16.6837 85.3754 13.4505C85.3893 11.8685 84.1081 10.5859 82.527 10.5859H17.473C15.9824 10.5859 14.6185 11.748 14.6247 13.5035C14.6251 16.6958 12.0593 19.363 8.72399 19.3511C7.15446 19.3343 5.85935 20.6085 5.85935 22.1993V55.6125C5.85935 57.1191 7.04548 58.4724 8.77809 58.4605C11.9542 58.4609 14.6367 61.0285 14.6246 64.3611C14.6107 65.9435 15.8919 67.2259 17.473 67.2259H46.582C47.3912 67.2259 48.0469 66.5703 48.0469 65.7611C48.0469 64.9519 47.3912 64.2962 46.582 64.2962H17.5544C17.5482 59.4658 13.6197 55.5373 8.78903 55.5308V22.2808C13.6312 22.2745 17.5482 18.3591 17.5544 13.5154H82.4454C82.4485 15.856 83.3612 18.0558 85.0161 19.7107C86.6711 21.3654 88.8706 22.2779 91.211 22.2808V55.5308C90.7713 55.5314 90.3356 55.5644 89.9057 55.6295C89.5354 53.5117 87.9524 52.9225 86.376 52.4592C85.0364 52.0658 85.0266 52.0471 84.2639 50.927C83.6926 50.0879 82.9817 49.0438 81.7551 48.6455C80.569 48.2612 79.4018 48.6744 78.4638 49.0074C77.1175 49.4844 77.0673 49.4844 75.7212 49.0074C74.9628 48.7383 74.0544 48.4164 73.1073 48.5067H24.9493C24.1401 48.5067 23.4845 49.1623 23.4845 49.9715C23.4845 50.7807 24.1401 51.4363 24.9493 51.4363H69.5648C69.3956 51.666 69.2308 51.8635 69.0819 51.9719C68.1927 52.6191 65.3363 52.54 64.4632 54.9295C63.9443 56.3494 64.3802 58.0117 64.129 58.7851C63.791 59.8277 61.1845 61.59 62.2654 64.2964H53.418C52.6088 64.2964 51.9531 64.9521 51.9531 65.7613C51.9531 66.5705 52.6088 67.2261 53.418 67.2261H64.1333C64.3193 67.8343 64.1009 69.0427 64.2476 70.156H7.62497C5.03592 70.156 2.92968 68.0497 2.92968 65.4607V12.3513C2.92968 9.76228 5.03592 7.65604 7.62497 7.65604H92.375C94.9641 7.65604 97.0703 9.76228 97.0703 12.3513V35.488C97.0703 36.2969 97.726 36.9528 98.5352 36.9528C99.3443 36.9528 100 36.2969 100 35.488V12.3513C100 8.14686 96.5793 4.72636 92.375 4.72636H7.62497C3.42069 4.72636 0 8.14686 0 12.3513H0ZM71.9411 90.634L69.7284 92.2043V74.7864C70.2632 75.5546 70.8837 76.5944 71.9411 77.1419V90.634ZM79.3145 88.5549L78.7032 88.1211C78.6431 88.0784 78.5815 88.0383 78.5188 88.0008C78.0804 87.7389 77.5862 87.6081 77.0925 87.6081C76.528 87.6081 75.9638 87.779 75.4823 88.121L74.8708 88.5549V77.269C77.8098 76.4118 76.26 76.3819 79.3145 77.269V88.5549ZM84.4565 92.2043L82.2442 90.6342V77.1419C83.3005 76.5946 83.9202 75.5567 84.4565 74.7864V92.2043ZM65.7261 61.672C66.9648 60.0734 67.189 59.4472 67.1323 57.3242C67.0919 55.806 67.1224 55.7801 67.9066 55.4992C70.0835 54.7197 70.7062 54.9789 72.3425 52.5756C72.6591 52.1109 73.0519 51.5346 73.3251 51.4359C73.6456 51.4359 73.6394 51.377 74.7419 51.7682C76.7436 52.4785 77.4514 52.4748 79.4428 51.7682C79.9354 51.5934 80.6106 51.3535 80.8501 51.4318C81.1237 51.5205 81.5219 52.1055 81.8423 52.5756C83.0135 54.2951 83.5508 54.6822 85.5499 55.2697C87.1288 55.7336 87.0959 55.6918 87.0524 57.3242C86.9971 59.447 87.217 60.0699 88.4586 61.6718C89.4887 63.0013 89.4897 62.9916 88.4586 64.3214C87.044 66.1464 87.0211 66.6939 87.0594 68.9833C87.086 70.5865 86.9776 70.1882 84.7161 70.9849C83.2551 71.4976 82.7198 72.1286 81.8421 73.4173C80.885 74.8232 80.9385 74.7538 79.4413 74.2237C76.6585 73.239 76.2663 73.8034 74.0253 74.4634C73.1335 74.7234 73.2329 74.6499 72.0226 72.9562C70.1275 70.3044 68.1298 71.0214 67.2829 70.1724C67.078 69.9558 67.1212 69.0658 67.132 68.6689C67.1767 66.9785 67.0843 66.2048 66.1632 64.9029C64.7855 62.9789 64.5033 63.2492 65.7261 61.672Z"/>
</svg>
