<svg width="100" height="100" viewBox="0 0 100 100" fill="none" xmlns="http://www.w3.org/2000/svg">
<path d="M92.3664 43.75H87.5014C87.2242 42.7468 86.628 41.8611 85.8029 41.2268C84.9777 40.5926 83.9685 40.2442 82.9277 40.2344H77.7344V27.5344C77.7402 27.2968 77.6828 27.0619 77.568 26.8539C77.4531 26.6458 77.285 26.4721 77.0809 26.3504L40.4447 5.18985C40.2382 5.06983 40.0037 5.00661 39.7648 5.00661C39.526 5.00661 39.2914 5.06983 39.085 5.18985L2.43751 26.3504C2.23015 26.4706 2.05813 26.6433 1.93881 26.8512C1.81948 27.0591 1.75705 27.2947 1.75782 27.5344V69.8557C1.75783 70.0956 1.821 70.3314 1.941 70.5392C2.06099 70.7471 2.23358 70.9197 2.44141 71.0396L39.0926 92.2002C39.3004 92.3202 39.5362 92.3834 39.7762 92.3834C40.0224 92.3835 40.2645 92.3205 40.4793 92.2002L59.7656 81.0758V89.1176C59.7636 89.8832 59.9135 90.6416 60.2066 91.349C60.4997 92.0563 60.9302 92.6984 61.4732 93.2383C62.0162 93.7781 62.6608 94.2048 63.3698 94.4938C64.0788 94.7828 64.8381 94.9283 65.6037 94.9219H92.3664C93.134 94.929 93.8954 94.7843 94.6069 94.496C95.3183 94.2077 95.9657 93.7816 96.5118 93.2421C97.0579 92.7027 97.4919 92.0605 97.7889 91.3527C98.0859 90.6448 98.2399 89.8852 98.2422 89.1176V49.6449C98.2413 48.0851 97.6225 46.5891 96.5214 45.4844C95.4202 44.3796 93.9262 43.756 92.3664 43.75ZM82.9764 42.9688C83.5027 42.9688 84.0075 43.1778 84.3797 43.55C84.7519 43.9222 84.9609 44.427 84.9609 44.9533V45.0857C84.9609 45.6121 84.7519 46.1169 84.3797 46.489C84.0075 46.8612 83.5027 47.0703 82.9764 47.0703H75.0314C74.5051 47.0703 74.0003 46.8612 73.6281 46.489C73.256 46.1169 73.0469 45.6121 73.0469 45.0857V44.9533C73.0469 44.427 73.256 43.9222 73.6281 43.55C74.0003 43.1778 74.5051 42.9688 75.0314 42.9688H82.9764ZM39.7762 7.95254L55.0055 16.7451L21.091 36.3256L5.86192 27.533L39.7762 7.95254ZM38.4766 88.648L4.49219 69.0662V29.8994L38.4766 49.4813V88.648ZM39.7762 47.1133L23.8254 37.9041L57.7398 18.3238L73.6914 27.533L39.7762 47.1133ZM59.7656 49.6449V77.9186L41.2109 88.648V49.4813L75 29.8994V40.2344H75.0424C74.0017 40.2442 72.9924 40.5925 72.1672 41.2268C71.3421 41.8611 70.7459 42.7468 70.4688 43.75H65.6037C64.0478 43.7575 62.5587 44.3829 61.4638 45.4884C60.3689 46.5939 59.7581 48.089 59.7656 49.6449ZM95.5078 89.1176C95.5059 89.5262 95.4229 89.9305 95.2635 90.3068C95.104 90.683 94.8714 91.0239 94.5791 91.3095C94.2869 91.5952 93.9407 91.8199 93.5609 91.9706C93.181 92.1213 92.775 92.195 92.3664 92.1875H65.6037C65.1971 92.1944 64.7932 92.1199 64.4158 91.9684C64.0383 91.817 63.6949 91.5917 63.4058 91.3057C63.1167 91.0197 62.8876 90.6788 62.732 90.3031C62.5765 89.9273 62.4976 89.5243 62.5 89.1176V49.6449C62.4959 49.2335 62.5729 48.8253 62.7267 48.4437C62.8806 48.0621 63.1081 47.7146 63.3964 47.421C63.6847 47.1274 64.028 46.8936 64.4068 46.7329C64.7856 46.5722 65.1923 46.4877 65.6037 46.4844H70.5221C70.8153 47.4521 71.4143 48.2988 72.2292 48.8974C73.0442 49.496 74.0312 49.8143 75.0424 49.8047H82.9277C83.9389 49.8144 84.9259 49.496 85.7408 48.8974C86.5558 48.2988 87.1547 47.4521 87.4479 46.4844H92.3664C93.2012 46.4896 94.0001 46.8249 94.5887 47.417C95.1772 48.0092 95.5076 48.8101 95.5078 49.6449V89.1176Z" fill="#C8242B"/>
<path d="M67.1775 63.4766H68.6086C68.9712 63.4766 69.3189 63.3325 69.5753 63.0761C69.8317 62.8197 69.9758 62.472 69.9758 62.1094C69.9758 61.7468 69.8317 61.399 69.5753 61.1426C69.3189 60.8862 68.9712 60.7422 68.6086 60.7422H68.5547V57.0312H72.3256C72.4114 57.3061 72.585 57.5453 72.8198 57.7121C73.0545 57.8788 73.3375 57.964 73.6254 57.9545C73.9884 57.9555 74.337 57.8124 74.5947 57.5567C74.8524 57.301 74.9982 56.9535 75 56.5904V55.6705C74.9969 55.3057 74.85 54.9568 74.5913 54.6996C74.3325 54.4425 73.9828 54.2977 73.6179 54.2969H67.1775C66.9982 54.2978 66.8207 54.3341 66.6554 54.4036C66.4901 54.4732 66.3401 54.5747 66.2141 54.7023C66.088 54.8298 65.9883 54.981 65.9208 55.1472C65.8532 55.3133 65.819 55.4912 65.8203 55.6705V62.1109C65.8192 62.2899 65.8535 62.4673 65.9212 62.6329C65.989 62.7985 66.0887 62.9491 66.2149 63.076C66.341 63.2029 66.491 63.3037 66.6562 63.3724C66.8214 63.4411 66.9986 63.4765 67.1775 63.4766Z" fill="#C8242B"/>
<path d="M67.1875 75.9766H73.6328C73.9954 75.9766 74.3432 75.8325 74.5996 75.5761C74.856 75.3197 75 74.972 75 74.6094V68.1641C75 67.8015 74.856 67.4537 74.5996 67.1973C74.3432 66.9409 73.9954 66.7969 73.6328 66.7969H67.1875C66.8249 66.7969 66.4772 66.9409 66.2208 67.1973C65.9644 67.4537 65.8203 67.8015 65.8203 68.1641V74.6094C65.8203 74.972 65.9644 75.3197 66.2208 75.5761C66.4772 75.8325 66.8249 75.9766 67.1875 75.9766ZM68.5547 69.5312H72.2656V73.2422H68.5547V69.5312Z" fill="#C8242B"/>
<path d="M68.6088 85.7422H68.5547V82.0313H72.2518C72.2588 82.3908 72.4065 82.7332 72.6632 82.9851C72.9198 83.2371 73.265 83.3783 73.6246 83.3787C73.9842 83.379 74.3296 83.2385 74.5868 82.9871C74.8439 82.7357 74.9923 82.3935 75 82.034V80.7166C74.9986 80.347 74.8538 79.9923 74.5959 79.7275C74.3381 79.4626 73.9875 79.3082 73.618 79.2969H67.1776C66.8107 79.3092 66.4632 79.4647 66.2095 79.73C65.9559 79.9954 65.8162 80.3495 65.8203 80.7166V87.157C65.8202 87.3336 65.8554 87.5083 65.924 87.671C65.9927 87.8336 66.0932 87.9809 66.2198 88.1039C66.3464 88.227 66.4964 88.3234 66.6609 88.3874C66.8254 88.4514 67.0011 88.4817 67.1776 88.4766H68.6088C68.9714 88.4766 69.3192 88.3325 69.5756 88.0761C69.832 87.8197 69.976 87.472 69.976 87.1094C69.976 86.7468 69.832 86.399 69.5756 86.1426C69.3192 85.8862 68.9714 85.7422 68.6088 85.7422Z" fill="#C8242B"/>
<path d="M76.7658 55.975L72.7619 59.9789L71.544 58.7607C71.417 58.6338 71.2663 58.5331 71.1004 58.4644C70.9345 58.3956 70.7567 58.3603 70.5772 58.3603C70.3976 58.3603 70.2198 58.3956 70.0539 58.4644C69.888 58.5331 69.7373 58.6338 69.6104 58.7607C69.4834 58.8877 69.3827 59.0384 69.314 59.2043C69.2453 59.3702 69.2099 59.548 69.2099 59.7275C69.2099 59.9071 69.2453 60.0849 69.314 60.2508C69.3827 60.4166 69.4834 60.5674 69.6104 60.6943L71.7953 62.8791C71.9223 63.0061 72.073 63.1068 72.2389 63.1755C72.4048 63.2442 72.5826 63.2796 72.7621 63.2796C72.9417 63.2796 73.1195 63.2442 73.2854 63.1755C73.4512 63.1068 73.602 63.0061 73.7289 62.8791L78.7 57.908C78.9564 57.6516 79.1005 57.3038 79.1005 56.9412C79.1005 56.5786 78.9564 56.2308 78.7 55.9744C78.4436 55.718 78.0958 55.5739 77.7332 55.5739C77.3706 55.5739 77.0228 55.718 76.7664 55.9744L76.7658 55.975Z" fill="#C8242B"/>
<path d="M76.7658 81.219L72.7619 85.2229L71.544 84.0047C71.417 83.8777 71.2663 83.777 71.1004 83.7083C70.9345 83.6396 70.7567 83.6042 70.5772 83.6042C70.3976 83.6042 70.2198 83.6396 70.0539 83.7083C69.888 83.777 69.7373 83.8777 69.6104 84.0047C69.4834 84.1317 69.3827 84.2824 69.314 84.4483C69.2453 84.6141 69.2099 84.7919 69.2099 84.9715C69.2099 85.151 69.2453 85.3288 69.314 85.4947C69.3827 85.6606 69.4834 85.8113 69.6104 85.9383L71.7953 88.1231C71.9223 88.25 72.073 88.3507 72.2389 88.4195C72.4048 88.4882 72.5826 88.5235 72.7621 88.5235C72.9417 88.5235 73.1195 88.4882 73.2854 88.4195C73.4512 88.3507 73.602 88.25 73.7289 88.1231L78.7 83.152C78.9564 82.8956 79.1005 82.5478 79.1005 82.1852C79.1005 81.8225 78.9564 81.4748 78.7 81.2184C78.4436 80.962 78.0958 80.8179 77.7332 80.8179C77.3706 80.8179 77.0228 80.962 76.7664 81.2184L76.7658 81.219Z" fill="#C8242B"/>
<path d="M90.7924 57.6172H82.2053C81.8427 57.6172 81.4949 57.7612 81.2385 58.0176C80.9821 58.274 80.8381 58.6218 80.8381 58.9844C80.8381 59.347 80.9821 59.6947 81.2385 59.9511C81.4949 60.2075 81.8427 60.3516 82.2053 60.3516H90.7924C91.155 60.3516 91.5027 60.2075 91.7591 59.9511C92.0155 59.6947 92.1596 59.347 92.1596 58.9844C92.1596 58.6218 92.0155 58.274 91.7591 58.0176C91.5027 57.7612 91.155 57.6172 90.7924 57.6172Z" fill="#C8242B"/>
<path d="M90.7924 70.1172H82.2053C81.8427 70.1172 81.4949 70.2612 81.2385 70.5176C80.9821 70.774 80.8381 71.1218 80.8381 71.4844C80.8381 71.847 80.9821 72.1947 81.2385 72.4511C81.4949 72.7075 81.8427 72.8516 82.2053 72.8516H90.7924C91.155 72.8516 91.5027 72.7075 91.7591 72.4511C92.0155 72.1947 92.1596 71.847 92.1596 71.4844C92.1596 71.1218 92.0155 70.774 91.7591 70.5176C91.5027 70.2612 91.155 70.1172 90.7924 70.1172Z" fill="#C8242B"/>
<path d="M90.7924 82.6172H82.2053C81.8427 82.6172 81.4949 82.7612 81.2385 83.0176C80.9821 83.274 80.8381 83.6218 80.8381 83.9844C80.8381 84.347 80.9821 84.6947 81.2385 84.9511C81.4949 85.2075 81.8427 85.3516 82.2053 85.3516H90.7924C91.155 85.3516 91.5027 85.2075 91.7591 84.9511C92.0155 84.6947 92.1596 84.347 92.1596 83.9844C92.1596 83.6218 92.0155 83.274 91.7591 83.0176C91.5027 82.7612 91.155 82.6172 90.7924 82.6172Z" fill="#C8242B"/>
</svg>
