<svg width="100" height="100" viewBox="0 0 100 100" xmlns="http://www.w3.org/2000/svg">
<path d="M67.5781 0C66.4996 0 65.625 0.874609 65.625 1.95312V10.9375C65.625 12.016 66.4996 12.8906 67.5781 12.8906C68.6566 12.8906 69.5312 12.016 69.5312 10.9375V1.95312C69.5312 0.874609 68.6566 0 67.5781 0Z" />
<path d="M22.6562 60.9375C21.5781 60.9375 20.7031 61.8125 20.7031 62.8906C20.7031 63.9688 21.5781 64.8438 22.6562 64.8438C23.7344 64.8438 24.6094 63.9688 24.6094 62.8906C24.6094 61.8125 23.7344 60.9375 22.6562 60.9375Z" />
<path d="M94.9219 57.0312C94.9219 52.7234 91.4172 49.2188 87.1094 49.2188H72.5289C74.7861 43.4369 75.6998 36.6314 75.5236 30.5734C75.49 29.4174 75.4457 28.7488 75.3857 28.3279C75.2848 24.1078 71.8195 20.7031 67.5781 20.7031C63.2703 20.7031 59.7656 24.2078 59.7656 28.5156V30.4688C59.7656 42.8215 43.9035 49.7619 31.9328 52.7381C31.0277 50.6689 28.9617 49.2188 26.5625 49.2188H7.03125C5.95273 49.2188 5.07812 50.0934 5.07812 51.1719V98.0469C5.07812 99.1254 5.95273 100 7.03125 100H26.5625C28.9457 100 30.9998 98.5689 31.9143 96.5217C32.9055 96.776 33.8256 97.0162 34.675 97.2381C41.4943 99.0191 45.2508 100 54.3867 100H75.3906C79.6984 100 83.2031 96.4953 83.2031 92.1875C83.2031 90.5813 82.7154 89.0871 81.8809 87.8441C84.898 86.7889 87.1094 83.9061 87.1094 80.4688C87.1094 78.8684 86.6336 77.3693 85.8016 76.1207C88.8055 75.0637 91.0156 72.1875 91.0156 68.75C91.0156 67.1437 90.5279 65.6496 89.6934 64.4066C92.7105 63.3514 94.9219 60.4686 94.9219 57.0312ZM28.5156 94.1406C28.5156 95.2176 27.6395 96.0938 26.5625 96.0938H8.98438V53.125H26.5625C27.6395 53.125 28.5156 54.0012 28.5156 55.0781V94.1406ZM87.1094 60.9375C82.9201 60.9375 81.9215 60.9375 77.3438 60.9375C76.2652 60.9375 75.3906 61.8121 75.3906 62.8906C75.3906 63.9691 76.2652 64.8438 77.3438 64.8438H83.2031C85.357 64.8438 87.1094 66.5961 87.1094 68.75C87.1094 70.9074 85.3605 72.6562 83.2031 72.6562H73.4375C72.359 72.6562 71.4844 73.5309 71.4844 74.6094C71.4844 75.6879 72.359 76.5625 73.4375 76.5625H79.2969C81.4252 76.5625 83.2031 78.2627 83.2031 80.4688C83.2031 82.6262 81.4543 84.375 79.2969 84.375C75.1076 84.375 74.109 84.375 69.5312 84.375C68.4527 84.375 67.5781 85.2496 67.5781 86.3281C67.5781 87.4066 68.4527 88.2812 69.5312 88.2812H75.3906C77.5445 88.2812 79.2969 90.0336 79.2969 92.1875C79.2969 94.3414 77.5445 96.0938 75.3906 96.0938H54.3867C45.7525 96.0938 42.3803 95.2131 35.6621 93.4586C34.6779 93.2016 33.5984 92.9197 32.4219 92.6197V56.6455C46.5562 53.2787 63.6719 45.0607 63.6719 30.4688V28.5156C63.6719 26.3617 65.4242 24.6094 67.5781 24.6094C69.7281 24.6094 71.4803 26.359 71.4844 28.5096V28.5156C71.4844 29.3645 72.5438 39.7818 68.2957 49.2188H61.7188C60.6402 49.2188 59.7656 50.0934 59.7656 51.1719C59.7656 52.2504 60.6402 53.125 61.7188 53.125C63.0826 53.125 84.8832 53.125 87.1094 53.125C89.2633 53.125 91.0156 54.8773 91.0156 57.0312C91.0156 59.1887 89.2668 60.9375 87.1094 60.9375Z" />
<path d="M22.6562 68.75C21.5777 68.75 20.7031 69.6246 20.7031 70.7031V86.3281C20.7031 87.4066 21.5777 88.2812 22.6562 88.2812C23.7348 88.2812 24.6094 87.4066 24.6094 86.3281V70.7031C24.6094 69.6246 23.7348 68.75 22.6562 68.75Z" />
<path d="M51.9531 24.6094H44.1406C43.0621 24.6094 42.1875 25.484 42.1875 26.5625C42.1875 27.641 43.0621 28.5156 44.1406 28.5156H51.9531C53.0316 28.5156 53.9062 27.641 53.9062 26.5625C53.9062 25.484 53.0316 24.6094 51.9531 24.6094Z" />
<path d="M91.0156 24.6094H83.2031C82.1246 24.6094 81.25 25.484 81.25 26.5625C81.25 27.641 82.1246 28.5156 83.2031 28.5156H91.0156C92.0941 28.5156 92.9688 27.641 92.9688 26.5625C92.9688 25.484 92.0941 24.6094 91.0156 24.6094Z" />
<path d="M85.5315 8.60918C84.7686 7.84668 83.5323 7.84668 82.7692 8.60918L77.2459 14.1324C76.4832 14.8951 76.4832 16.1318 77.2459 16.8947C78.009 17.6574 79.2451 17.6572 80.0082 16.8947L85.5315 11.3715C86.2942 10.6088 86.2942 9.37207 85.5315 8.60918Z" />
<path d="M57.9104 14.1324L52.3871 8.60918C51.6242 7.84668 50.3879 7.84668 49.6248 8.60918C48.8621 9.37188 48.8621 10.6086 49.6248 11.3715L55.1481 16.8947C55.9113 17.6574 57.1475 17.6572 57.9104 16.8947C58.6731 16.132 58.6731 14.8953 57.9104 14.1324Z" />
</svg>
