<svg width="15" height="15" viewBox="0 0 15 15" fill="none" xmlns="http://www.w3.org/2000/svg">
<g clip-path="url(#clip0)">
<path d="M10.9419 8.94186L10.9362 8.98874C9.56187 8.30373 9.41812 8.21248 9.24062 8.47873C9.11749 8.66311 8.75874 9.08123 8.65062 9.20498C8.54124 9.32686 8.43249 9.33624 8.24687 9.25186C8.05937 9.15811 7.45749 8.96123 6.74499 8.32373C6.18999 7.82686 5.81749 7.21748 5.70749 7.02998C5.52437 6.71373 5.90749 6.66873 6.25624 6.00873C6.31874 5.87748 6.28687 5.77436 6.24062 5.68123C6.19374 5.58748 5.82062 4.66873 5.66437 4.30248C5.51437 3.93748 5.35999 3.98373 5.24437 3.98373C4.88437 3.95248 4.62124 3.95748 4.38937 4.19873C3.38062 5.30748 3.63499 6.45123 4.49812 7.66748C6.19437 9.88748 7.09812 10.2962 8.75062 10.8637C9.19687 11.0056 9.60374 10.9856 9.92562 10.9394C10.2844 10.8825 11.03 10.4887 11.1856 10.0481C11.345 9.60748 11.345 9.24186 11.2981 9.15749C11.2519 9.07311 11.1294 9.02623 10.9419 8.94186Z" fill="white"/>
<path d="M12.825 2.15516C8.01937 -2.49046 0.06625 0.878912 0.063125 7.43266C0.063125 8.74266 0.40625 10.0202 1.06 11.1483L0 14.9995L3.95937 13.967C8.9 16.6358 14.9975 13.092 15 7.43641C15 5.45141 14.225 3.58329 12.8156 2.17954L12.825 2.15516ZM13.7513 7.41579C13.7475 12.1864 8.51062 15.1658 4.36875 12.7308L4.14375 12.597L1.8 13.2064L2.42812 10.9283L2.27875 10.6939C-0.29875 6.59079 2.6625 1.22829 7.545 1.22829C9.20375 1.22829 10.7606 1.87516 11.9331 3.04704C13.105 4.20891 13.7513 5.76579 13.7513 7.41579Z" fill="white"/>
</g>
<defs>
<clipPath id="clip0">
<rect width="15" height="15" fill="white"/>
</clipPath>
</defs>
</svg>
