<svg width="15" height="15" viewBox="0 0 15 15" fill="none" xmlns="http://www.w3.org/2000/svg">
<g clip-path="url(#clip0)">
<path d="M14.7088 11.9274L13.0459 10.8187L11.5676 9.83338C11.2823 9.64357 10.8989 9.7058 10.6883 9.97614L9.77359 11.1521C9.5771 11.4073 9.22364 11.4806 8.94186 11.3246C8.32119 10.9793 7.58722 10.6542 5.96777 9.03271C4.34831 7.41117 4.02116 6.67929 3.6759 6.05861C3.5199 5.77684 3.59322 5.42337 3.8484 5.22691L5.02433 4.31219C5.29465 4.1016 5.35691 3.7182 5.16709 3.43288L4.21203 2.00013L3.07306 0.291677C2.87921 0.000879503 2.49115 -0.0864242 2.19144 0.09331L0.877905 0.881328C0.522919 1.09048 0.261975 1.42821 0.149125 1.8245C-0.21008 3.13414 -0.282501 6.02316 4.34752 10.6532C8.97755 15.2832 11.8663 15.2106 13.1759 14.8513C13.5722 14.7385 13.91 14.4776 14.1191 14.1225L14.9071 12.809C15.0869 12.5093 14.9996 12.1213 14.7088 11.9274Z" fill="white"/>
<path d="M8.53436 2.32753C10.9613 2.33023 12.9282 4.29702 12.9309 6.72403C12.9309 6.86686 13.0466 6.98266 13.1895 6.98266C13.3323 6.98266 13.4481 6.86688 13.4481 6.72403C13.4451 4.0115 11.2469 1.81329 8.53439 1.8103C8.39157 1.8103 8.27576 1.92608 8.27576 2.06893C8.27573 2.21172 8.39151 2.32753 8.53436 2.32753Z" fill="white"/>
<path d="M8.53436 3.87908C10.1047 3.88092 11.3773 5.15351 11.3791 6.72386C11.3791 6.86668 11.4949 6.98249 11.6378 6.98249C11.7806 6.98249 11.8964 6.86671 11.8964 6.72386C11.8943 4.86795 10.3903 3.36396 8.53436 3.36182C8.39154 3.36182 8.27573 3.4776 8.27573 3.62045C8.27573 3.7633 8.39151 3.87908 8.53436 3.87908Z" fill="white"/>
<path d="M8.53436 5.4308C9.24817 5.43165 9.8266 6.01008 9.82745 6.72389C9.82745 6.86672 9.94323 6.98252 10.0861 6.98252C10.2289 6.98252 10.3447 6.86674 10.3447 6.72389C10.3436 5.72456 9.53372 4.91472 8.53439 4.91357C8.39157 4.91357 8.27576 5.02935 8.27576 5.1722C8.27573 5.31502 8.39151 5.4308 8.53436 5.4308Z" fill="white"/>
</g>
<defs>
<clipPath id="clip0">
<rect width="15" height="15" fill="white"/>
</clipPath>
</defs>
</svg>
